# xmcd CD database file
#
# Track frame offsets:
#	150
#	29982
#	69010
#	85557
#	107827
#	152805
#
# Disc length: 2249 seconds
#
# Revision: 1
# Processed by: cddbd v1.5.1PL0 Copyright (c) Steve Scherf et al.
# Submitted via: CDex 1.51
#
DISCID=4308c706
DTITLE=Thai Phong - Last Flight
DYEAR=1979
DGENRE=Progressive Rock
TTITLE0=End Of The End
TTITLE1=Farewell Gig In Amsterdam
TTITLE2=Sad Passion
TTITLE3=Thirtheenth Space
TTITLE4=Last Flight
TTITLE5=How Do You Do
EXTD=YEAR: 1979
EXTT0=
EXTT1=
EXTT2=
EXTT3=
EXTT4=
EXTT5=
PLAYORDER=
